# xmcd
#
# Track frame offsets:
#  150
#  13776
#  25981
#  36827
#  47966
#  59182
#  69583
#  81794
#  92397
#  104908
#  117795
#  128174
#
# Disc length: 1860 seconds
#
# Revision: 0
# Processed by: cddbd v1.5.1PL2 Copyright (c) Steve Scherf et al.
# Submitted via: Collectorz.com Music Collector 6.9
#
DISCID=a807420c
DTITLE=Mac Wiseman - Mac Wiseman 'Tis Sweet To Be Remembered
DYEAR=1900
DGENRE=
TTITLE0=01 - 'Tis Sweet To Be Remembered
TTITLE1=02 - I'll Still Write Your Name In The Sand
TTITLE2=03 - Shackles And Chains
TTITLE3=04 - Rememgering
TTITLE4=05 - I Haven't Got The Right To Love you
TTITLE5=06 - I Saw You Face In The Moon
TTITLE6=07 - Four Walls Around Me
TTITLE7=08 - Rainbow In The Valley
TTITLE8=09 - Love Letters In The Sand
TTITLE9=10 - I Wonder How The Old Folks Are At Home
TTITLE10=11 - Don't Let Your Sweet Love Die
TTITLE11=12 - Goin' Like Wildfire
EXTD=
EXTT0=
EXTT1=
EXTT2=
EXTT3=
EXTT4=
EXTT5=
EXTT6=
EXTT7=
EXTT8=
EXTT9=
EXTT10=
EXTT11=
PLAYORDER=
